HIERARCHY
ROOT Hips
{
	OFFSET	0.00	0.00	0.00
	CHANNELS 6 Xposition Yposition Zposition Zrotation Xrotation Yrotation
	JOINT LeftUpLeg
	{
		OFFSET	 0.126116	-0.014019	-0.065224
		CHANNELS 3 Zrotation Xrotation Yrotation
		JOINT LeftLeg
		{
			OFFSET	 0.000000	 0.000000	 0.569914
			CHANNELS 3 Zrotation Xrotation Yrotation
			JOINT LeftFoot
			{
				OFFSET	 0.000000	 0.000000	 0.544423
				CHANNELS 3 Zrotation Xrotation Yrotation
				JOINT LeftToeBase
				{
					OFFSET	 0.000000	 0.000000	 0.207117
					CHANNELS 3 Zrotation Xrotation Yrotation
					End Site
					{
						OFFSET	 0.000000	 0.000000	 0.207117
					}
				}
			}
		}
	}
	JOINT RightUpLeg
	{
		OFFSET	-0.124023	-0.008373	-0.065224
		CHANNELS 3 Zrotation Xrotation Yrotation
		JOINT RightLeg
		{
			OFFSET	 0.000000	 0.000000	 0.570047
			CHANNELS 3 Zrotation Xrotation Yrotation
			JOINT RightFoot
			{
				OFFSET	 0.000000	 0.000000	 0.544354
				CHANNELS 3 Zrotation Xrotation Yrotation
				JOINT RightToeBase
				{
					OFFSET	 0.000000	 0.000000	 0.207540
					CHANNELS 3 Zrotation Xrotation Yrotation
					End Site
					{
						OFFSET	 0.000000	 0.000000	 0.207540
					}
				}
			}
		}
	}
	JOINT Spine
	{
		OFFSET	 0.000184	-0.007763	 0.117403
		CHANNELS 3 Zrotation Xrotation Yrotation
		JOINT Spine1
		{
			OFFSET	 0.000000	 0.000000	 0.137269
			CHANNELS 3 Zrotation Xrotation Yrotation
			JOINT Spine2
			{
				OFFSET	 0.000000	 0.000000	 0.156879
				CHANNELS 3 Zrotation Xrotation Yrotation
				JOINT LeftShoulder
				{
					OFFSET	 0.080501	-0.002496	 0.160144
					CHANNELS 3 Zrotation Xrotation Yrotation
					JOINT LeftArm
					{
						OFFSET	 0.000000	 0.000000	 0.164363
						CHANNELS 3 Zrotation Xrotation Yrotation
						JOINT LeftForeArm
						{
							OFFSET	 0.000000	 0.000000	 0.364576
							CHANNELS 3 Zrotation Xrotation Yrotation
							JOINT LeftHand
							{
								OFFSET	 0.000000	 0.000000	 0.360812
								CHANNELS 3 Zrotation Xrotation Yrotation
								JOINT LeftHandIndex1
								{
									OFFSET	 0.000000	 0.000000	 0.086006
									CHANNELS 3 Zrotation Xrotation Yrotation
									JOINT LeftHandIndex2
									{
										OFFSET	 0.000000	 0.000000	 0.047236
										CHANNELS 3 Zrotation Xrotation Yrotation
										JOINT LeftHandIndex3
										{
											OFFSET	-0.004284	-0.000551	 0.038166
											CHANNELS 3 Zrotation Xrotation Yrotation
											End Site
											{
												OFFSET	-0.004284	-0.000551	 0.038166
											}
										}
									}
								}
							}
						}
					}
				}
				JOINT Neck
				{
					OFFSET	 0.000000	 0.000000	 0.176489
					CHANNELS 3 Zrotation Xrotation Yrotation
					JOINT Head
					{
						OFFSET	 0.000000	-0.001747	 0.077940
						CHANNELS 3 Zrotation Xrotation Yrotation
						End Site
						{
							OFFSET	 0.000000	-0.001747	 0.077940
						}
					}
				}
				JOINT RightShoulder
				{
					OFFSET	-0.080363	 0.000306	 0.159706
					CHANNELS 3 Zrotation Xrotation Yrotation
					JOINT RightArm
					{
						OFFSET	 0.000000	 0.000000	 0.164196
						CHANNELS 3 Zrotation Xrotation Yrotation
						JOINT RightForeArm
						{
							OFFSET	 0.000000	 0.000000	 0.365611
							CHANNELS 3 Zrotation Xrotation Yrotation
							JOINT RightHand
							{
								OFFSET	 0.000000	 0.000000	 0.360648
								CHANNELS 3 Zrotation Xrotation Yrotation
								JOINT RightHandIndex1
								{
									OFFSET	 0.000000	 0.000000	 0.069977
									CHANNELS 3 Zrotation Xrotation Yrotation
									JOINT RightHandIndex2
									{
										OFFSET	 0.000000	 0.000000	 0.052305
										CHANNELS 3 Zrotation Xrotation Yrotation
										JOINT RightHandIndex3
										{
											OFFSET	 0.009002	-0.000782	 0.042196
											CHANNELS 3 Zrotation Xrotation Yrotation
											End Site
											{
												OFFSET	 0.009002	-0.000782	 0.042196
											}
										}
									}
								}
							}
						}
					}
				}
			}
		}
	}
}
MOTION
Frames:    13
Frame Time: 0.03333334
-0.000560	 0.019741	 1.271230	 0.003234	 0.004033	-0.138271	 7.037277	-1.401002	 176.672700	 1.492516	-10.287300	-0.598266	-8.684458	 69.732300	 2.765903	-2.385833	 28.452760	 0.000004	-7.130889	-2.251828	-176.479100	-1.465513	-11.486820	 0.657519	 8.638158	 70.226360	-2.875100	 2.384658	 28.388730	 0.000004	 0.221204	 2.739613	-0.058069	 1.624147	 3.644126	 0.648920	-4.883883	-4.539640	-1.070202	-91.776190	 78.527450	-180.000000	 45.034680	 33.392380	-63.897060	-10.097320	 0.219610	-1.327464	-31.328690	-12.576610	-4.671461	-2.635965	 4.993658	 6.788941	-5.165319	 0.784187	 3.516649	-5.225038	 0.466231	 0.424329	-0.000002	-3.783157	-0.089647	-4.740524	 4.833851	 0.200189	 89.782120	 78.203890	 180.000000	-62.140670	 41.115440	 55.109890	 9.805846	 3.907006	 9.000773	 31.682820	-13.231620	 9.363787	 6.112037	 4.509576	-0.364401	 4.968462	 1.518543	-9.347576	 5.168945	 0.703820	 2.021906
-0.000559	 0.019743	 1.271250	 0.003236	 0.004039	-0.138256	 7.167387	-1.417674	 176.665000	 1.492341	-10.303920	-0.599253	-8.685339	 69.732670	 2.767060	-2.385833	 28.452760	 0.000004	-7.260941	-2.268173	-176.472000	-1.465341	-11.501680	 0.658392	 8.637425	 70.226480	-2.874465	 2.384658	 28.388730	 0.000004	-1.170393	 2.739609	-0.058080	 1.624145	 3.644109	 0.648950	-4.883886	-4.539622	-1.070213	-91.776210	 78.527490	-180.000000	 45.010010	 33.370290	-63.848570	-11.010250	 0.261530	-1.748097	-31.838670	-13.092250	-4.796195	-2.635965	 4.993658	 6.788941	-5.165319	 0.784187	 3.516649	-5.225038	 0.466231	 0.424329	-0.000002	-3.783157	-0.089647	-4.740528	 4.833849	 0.200189	 89.782100	 78.203900	 180.000000	-61.922890	 41.015230	 55.393910	 10.522600	 4.149297	 9.557968	 32.268250	-13.759310	 9.491659	 6.112037	 4.509576	-0.364401	 4.968462	 1.518543	-9.347576	 5.168945	 0.703820	 2.021906
-0.000555	 0.019748	 1.271305	 0.003239	 0.004044	-0.138222	 7.455123	-1.454182	 176.648100	 1.491960	-10.339800	-0.601386	-8.686810	 69.733200	 2.769145	-2.385833	 28.452760	 0.000004	-7.548525	-2.304031	-176.456300	-1.464960	-11.533880	 0.660286	 8.635468	 70.226400	-2.872717	 2.384658	 28.388730	 0.000004	-4.107448	 2.739599	-0.058119	 1.624146	 3.644122	 0.648903	-4.883878	-4.539639	-1.070194	-91.776180	 78.527430	 180.000000	 44.950150	 33.318580	-63.730540	-12.944780	 0.396226	-2.639321	-32.929400	-14.173400	-5.091856	-2.635965	 4.993658	 6.788941	-5.165319	 0.784187	 3.516649	-5.225038	 0.466231	 0.424329	-0.000002	-3.783157	-0.089647	-4.740524	 4.833851	 0.200189	 89.782170	 78.203900	 179.999900	-61.371060	 40.777070	 56.152500	 12.181910	 4.760565	 10.799170	 33.348080	-14.850810	 9.763955	 6.112037	 4.509576	-0.364401	 4.968462	 1.518543	-9.347576	 5.168945	 0.703820	 2.021906
-0.000551	 0.019754	 1.271362	 0.003234	 0.004042	-0.138220	 7.742792	-1.490854	 176.631300	 1.491575	-10.375860	-0.603530	-8.688111	 69.733800	 2.771034	-2.385833	 28.452760	 0.000004	-7.836043	-2.339978	-176.440700	-1.464579	-11.566070	 0.662180	 8.633263	 70.226340	-2.870697	 2.384658	 28.388730	 0.000004	-6.894027	 2.739599	-0.058118	 1.624148	 3.644129	 0.648919	-4.883883	-4.539641	-1.070202	-91.776200	 78.527450	-180.000000	 44.884880	 33.260350	-63.600580	-14.798860	 0.582446	-3.487420	-33.988110	-15.187110	-5.414793	-2.635965	 4.993658	 6.788941	-5.165319	 0.784187	 3.516649	-5.225038	 0.466231	 0.424329	-0.000002	-3.783157	-0.089647	-4.740528	 4.833849	 0.200189	 89.782100	 78.203890	 180.000000	-60.678900	 40.314900	 56.698770	 13.556970	 5.825780	 12.729890	 34.511550	-16.019110	 10.005870	 6.112037	 4.509576	-0.364401	 4.968462	 1.518543	-9.347576	 5.168945	 0.703820	 2.021906
-0.000547	 0.019763	 1.271413	 0.003237	 0.004037	-0.138254	 8.060022	-1.531250	 176.613000	 1.491152	-10.415340	-0.605878	-8.689190	 69.734320	 2.772714	-2.385833	 28.452760	 0.000004	-8.153135	-2.379712	-176.423500	-1.464167	-11.601570	 0.664269	 8.630591	 70.226320	-2.868207	 2.384658	 28.388730	 0.000004	-9.809604	 2.739610	-0.058084	 1.624144	 3.644132	 0.648950	-4.883888	-4.539644	-1.070217	-91.776230	 78.527470	-180.000000	 44.805930	 33.189830	-63.442810	-16.768480	 0.841580	-4.379640	-35.128940	-16.230820	-5.799728	-2.635965	 4.993658	 6.788941	-5.165319	 0.784187	 3.516649	-5.225038	 0.466231	 0.424329	-0.000002	-3.783157	-0.089647	-4.740524	 4.833851	 0.200189	 89.782140	 78.203890	 180.000000	-59.589780	 39.634200	 56.760230	 14.781190	 7.780583	 15.951240	 35.789230	-17.275090	 10.294740	 6.112037	 4.509576	-0.364401	 4.968462	 1.518543	-9.347576	 5.168945	 0.703820	 2.021906
-0.000544	 0.019774	 1.271452	 0.003237	 0.004037	-0.138254	 8.329769	-1.565642	 176.597400	 1.490797	-10.448800	-0.607868	-8.689876	 69.734730	 2.773878	-2.385833	 28.452760	 0.000004	-8.422756	-2.413577	-176.409000	-1.463804	-11.631740	 0.666046	 8.628098	 70.226290	-2.865845	 2.384658	 28.388730	 0.000004	-12.158370	 2.739614	-0.058083	 1.624143	 3.644107	 0.648950	-4.883884	-4.539622	-1.070213	-91.776220	 78.527430	-180.000000	 44.733840	 33.124520	-63.297200	-18.387010	 1.102725	-5.105699	-36.079810	-17.055230	-6.147266	-2.635965	 4.993658	 6.788941	-5.165319	 0.784187	 3.516649	-5.225038	 0.466231	 0.424329	-0.000002	-3.783157	-0.089647	-4.740524	 4.833851	 0.200189	 89.782110	 78.203900	 180.000000	-58.536700	 39.021710	 57.017720	 15.640830	 9.532892	 18.603170	 36.856250	-18.299520	 10.562680	 6.112037	 4.509576	-0.364401	 4.968462	 1.518543	-9.347576	 5.168945	 0.703820	 2.021906
-0.000541	 0.019789	 1.271505	 0.003234	 0.004033	-0.138250	 8.624637	-1.603283	 176.580500	 1.490395	-10.485300	-0.610041	-8.690354	 69.735180	 2.774869	-2.385833	 28.452760	 0.000004	-8.717476	-2.450596	-176.393300	-1.463417	-11.664560	 0.667978	 8.625131	 70.226190	-2.862978	 2.384658	 28.388730	 0.000004	-14.582970	 2.739603	-0.058091	 1.624148	 3.644145	 0.648926	-4.883883	-4.539652	-1.070206	-91.776180	 78.527450	 180.000000	 44.646610	 33.049900	-63.122850	-20.098530	 1.426076	-5.863955	-37.099300	-17.886640	-6.544074	-2.635965	 4.993658	 6.788941	-5.165319	 0.784187	 3.516649	-5.225038	 0.466231	 0.424329	-0.000002	-3.783157	-0.089647	-4.740524	 4.833852	 0.200189	 89.782100	 78.203900	 180.000000	-57.403940	 38.397920	 58.332410	 16.572610	 10.838370	 20.334600	 38.006400	-19.379210	 10.871720	 6.112037	 4.509576	-0.364401	 4.968462	 1.518543	-9.347576	 5.168945	 0.703820	 2.021906
-0.000538	 0.019805	 1.271552	 0.003237	 0.004037	-0.138263	 8.912919	-1.640095	 176.564000	 1.490012	-10.520800	-0.612151	-8.690526	 69.735540	 2.775514	-2.385833	 28.452760	 0.000004	-9.005614	-2.486828	-176.378100	-1.463033	-11.696530	 0.669860	 8.621985	 70.226100	-2.859909	 2.384658	 28.388730	 0.000004	-16.801610	 2.739599	-0.058076	 1.624147	 3.644137	 0.648902	-4.883879	-4.539646	-1.070196	-91.776200	 78.527450	-180.000000	 44.558590	 32.967950	-62.943350	-21.713880	 1.773986	-6.566522	-38.074870	-18.625210	-6.944179	-2.635965	 4.993658	 6.788941	-5.165319	 0.784187	 3.516649	-5.225038	 0.466231	 0.424329	-0.000002	-3.783157	-0.089647	-4.740528	 4.833849	 0.200189	 89.782070	 78.203900	-180.000000	-56.292350	 37.834000	 60.327800	 17.555890	 11.650630	 21.171080	 39.104110	-20.369050	 11.192830	 6.112037	 4.509576	-0.364401	 4.968462	 1.518543	-9.347576	 5.168945	 0.703820	 2.021906
-0.000535	 0.019823	 1.271576	 0.003237	 0.004037	-0.138254	 9.237881	-1.681731	 176.545600	 1.489571	-10.560870	-0.614538	-8.690459	 69.735980	 2.775958	-2.385833	 28.452760	 0.000004	-9.330431	-2.527776	-176.361000	-1.462599	-11.732600	 0.671986	 8.618140	 70.226020	-2.856133	 2.384658	 28.388730	 0.000004	-19.112510	 2.739609	-0.058084	 1.624145	 3.644125	 0.648923	-4.883883	-4.539642	-1.070204	-91.776180	 78.527490	 180.000000	 44.452920	 32.872860	-62.727800	-23.463920	 2.201374	-7.316517	-39.147300	-19.365360	-7.403171	-2.635965	 4.993658	 6.788941	-5.165319	 0.784187	 3.516649	-5.225038	 0.466231	 0.424329	-0.000002	-3.783157	-0.089647	-4.740528	 4.833849	 0.200189	 89.782100	 78.203920	 180.000000	-55.039740	 37.157960	 62.977170	 18.484630	 12.216190	 21.625220	 40.083110	-21.473550	 11.466300	 6.112037	 4.509576	-0.364401	 4.968462	 1.518543	-9.347576	 5.168945	 0.703820	 2.021906
-0.000532	 0.019836	 1.271558	 0.003230	 0.004040	-0.138217	 9.516332	-1.717442	 176.529900	 1.489201	-10.595090	-0.616574	-8.690149	 69.736310	 2.776057	-2.385833	 28.452760	 0.000004	-9.608744	-2.562853	-176.346500	-1.462237	-11.763300	 0.673793	 8.614591	 70.225830	-2.852611	 2.384658	 28.388730	 0.000004	-20.923780	 2.739610	-0.058121	 1.624151	 3.644104	 0.648901	-4.883878	-4.539629	-1.070192	-91.776210	 78.527430	-180.000000	 44.359360	 32.789770	-62.537600	-24.903200	 2.589568	-7.919459	-40.040600	-19.918240	-7.797433	-2.635965	 4.993658	 6.788941	-5.165319	 0.784187	 3.516649	-5.225038	 0.466231	 0.424329	-0.000002	-3.783157	-0.089647	-4.740528	 4.833849	 0.200189	 89.782100	 78.203900	 180.000000	-53.874760	 36.536970	 65.031990	 19.151740	 12.855830	 22.221570	 40.869260	-22.357590	 11.698380	 6.112037	 4.509576	-0.364401	 4.968462	 1.518543	-9.347576	 5.168945	 0.703820	 2.021906
-0.000529	 0.019849	 1.271500	 0.003237	 0.004037	-0.138254	 9.801723	-1.753892	 176.513900	 1.488820	-10.629700	-0.618636	-8.689447	 69.736430	 2.775740	-2.385833	 28.452760	 0.000004	-9.894011	-2.598803	-176.331600	-1.461861	-11.794620	 0.675637	 8.610703	 70.225620	-2.848722	 2.384658	 28.388730	 0.000004	-22.610970	 2.739614	-0.058083	 1.624145	 3.644111	 0.648921	-4.883883	-4.539633	-1.070202	-91.776280	 78.527470	-179.999900	 44.263820	 32.698750	-62.338560	-26.319750	 3.005384	-8.501447	-40.929080	-20.404510	-8.196933	-2.635965	 4.993658	 6.788941	-5.165319	 0.784187	 3.516649	-5.225038	 0.466231	 0.424329	-0.000002	-3.783157	-0.089647	-4.740528	 4.833849	 0.200189	 89.782100	 78.203870	 180.000000	-52.595250	 35.837350	 66.955120	 19.572760	 13.606990	 23.024970	 41.471860	-23.252980	 11.836990	 6.112037	 4.509576	-0.364401	 4.968462	 1.518543	-9.347576	 5.168945	 0.703820	 2.021906
-0.000525	 0.019864	 1.271393	 0.003230	 0.004040	-0.138217	 10.129800	-1.796054	 176.495600	 1.488382	-10.669770	-0.621022	-8.688475	 69.736760	 2.775186	-2.385833	 28.452760	 0.000004	-10.221940	-2.640234	-176.314800	-1.461426	-11.830630	 0.677760	 8.605953	 70.225400	-2.843947	 2.384658	 28.388730	 0.000004	-24.330020	 2.739603	-0.058123	 1.624150	 3.644120	 0.648910	-4.883880	-4.539640	-1.070198	-91.776200	 78.527430	-180.000000	 44.147900	 32.591370	-62.097550	-27.965030	 3.499274	-9.124294	-41.816200	-20.852130	-8.625500	-2.635965	 4.993658	 6.788941	-5.165319	 0.784187	 3.516649	-5.225038	 0.466231	 0.424329	-0.000002	-3.783157	-0.089647	-4.740524	 4.833851	 0.200189	 89.782090	 78.203890	-180.000000	-51.057960	 34.990570	 69.599300	 19.916830	 14.053690	 23.417590	 41.912280	-24.270230	 11.868610	 6.112037	 4.509576	-0.364401	 4.968462	 1.518543	-9.347576	 5.168945	 0.703820	 2.021906
-0.000522	 0.019875	 1.271276	 0.003237	 0.004037	-0.138254	 10.402040	-1.831028	 176.480500	 1.488014	-10.702840	-0.622992	-8.687371	 69.736940	 2.774394	-2.385833	 28.452760	 0.000004	-10.494090	-2.674668	-176.300800	-1.461061	-11.860430	 0.679519	 8.601759	 70.225200	-2.839719	 2.384658	 28.388730	 0.000004	-25.571300	 2.739610	-0.058084	 1.624145	 3.644123	 0.648924	-4.883883	-4.539640	-1.070204	-91.776230	 78.527430	-180.000000	 44.047930	 32.499580	-61.889630	-29.203310	 3.917572	-9.604249	-42.585750	-21.144420	-8.977518	-2.635965	 4.993658	 6.788941	-5.165319	 0.784187	 3.516649	-5.225038	 0.466231	 0.424329	-0.000002	-3.783157	-0.089647	-4.740524	 4.833853	 0.200189	 89.782120	 78.203900	 180.000000	-49.783780	 34.300170	 72.171540	 20.268540	 14.018830	 23.158870	 42.224100	-25.043690	 11.876710	 6.112037	 4.509576	-0.364401	 4.968462	 1.518543	-9.347576	 5.168945	 0.703820	 2.021906
